<?xml version="1.0" encoding="UTF-8"?>
<svg width="170px" height="37px" viewBox="0 0 170 37" version="1.1" xmlns="http://www.w3.org/2000/svg" xmlns:xlink="http://www.w3.org/1999/xlink">
    <title>编组</title>
    <g id="控件" stroke="none" stroke-width="1" fill="none" fill-rule="evenodd">
        <g id="编组">
            <rect id="矩形" x="0" y="0" width="170" height="37"></rect>
            <g id="资源-9" transform="translate(1.000000, 0.000000)" fill-rule="nonzero">
                <path d="M49.4035776,9.4210658 C48.4077794,9.4210658 47.6005254,10.2275581 47.6005254,11.2224168 C47.6005254,12.2172755 48.4077794,13.0237678 49.4035776,13.0237678 C50.3993759,13.0237678 51.2066299,12.2172755 51.2066299,11.2224168 C51.2066299,10.2275581 50.3993759,9.4210658 49.4035776,9.4210658 Z" id="路径" fill="#E60012"></path>
                <polygon id="路径" fill="#505050" points="42.0200787 19.1753815 40.2260417 15.0863147 37.1698681 15.0863147 40.6136979 21.8233675 40.6136979 26.4618464 43.4084289 26.4618464 43.4084289 21.8233675 46.8522587 15.0863147 43.7960851 15.0863147"></polygon>
                <rect id="矩形" fill="#505050" x="47.9971969" y="15.077308" width="2.80374626" height="11.3755316"></rect>
                <polygon id="路径" fill="#505050" points="59.2031667 20.8056042 55.5519858 15.0863147 53.0998348 15.0863147 53.0998348 26.4618464 55.903581 26.4618464 55.903581 20.7425569 59.5547619 26.4618464 61.9978977 26.4618464 61.9978977 15.0863147 59.2031667 15.0863147"></polygon>
                <path d="M71.0942963,20.4723543 C70.4699637,19.9255269 69.6860612,19.5939458 68.8585115,19.526645 L67.4791765,19.3375031 C67.3112239,19.3215955 67.1468853,19.2790294 66.9923524,19.2114086 C66.8931781,19.1549834 66.8021843,19.0852872 66.7218946,19.0042532 C66.6413452,18.926074 66.5796831,18.8305879 66.5415894,18.7250438 C66.5297511,18.6413967 66.5297511,18.5565017 66.5415894,18.4728546 C66.5442762,18.2005155 66.6621794,17.9420276 66.8661388,17.761321 C66.9875356,17.647733 67.1320757,17.5617052 67.289856,17.5091318 C67.4903294,17.4429548 67.700879,17.4124691 67.9119091,17.4190643 L68.3626721,17.4190643 C68.5448264,17.4188468 68.7263757,17.4400076 68.9035878,17.4821116 C69.108944,17.5248845 69.3086221,17.591381 69.4985951,17.6802602 C69.7136142,17.7798367 69.9090292,17.9171082 70.0755718,18.0855642 L71.8335477,16.3382537 C71.3472917,15.8623308 70.7536331,15.5101786 70.1026176,15.3114836 C69.3991878,15.0951279 68.6658264,14.9917637 67.9299396,15.0052539 C67.3388269,14.9962343 66.7504757,15.0876016 66.1899942,15.2754566 C65.7101882,15.4383325 65.2663402,15.6921575 64.8827813,16.0230173 C64.5383681,16.3271295 64.2592783,16.6978768 64.0623925,17.1128346 C63.8681423,17.5682894 63.7699366,18.0588545 63.7739041,18.5539154 C63.7185231,19.3906023 64.0010158,20.2145729 64.5582319,20.8416312 C65.1907659,21.4187084 65.9950269,21.7730086 66.8481082,21.8503878 L68.218428,22.0395296 C68.4975573,22.0562372 68.7635342,22.1637929 68.9757099,22.3457593 C69.1349197,22.5296436 69.2129543,22.7700232 69.1920762,23.0122592 C69.1920762,23.6967726 68.6511605,24.0390293 67.5603139,24.0390293 C67.0919151,24.0356872 66.6256787,23.9751942 66.1719636,23.8588942 C65.7375,23.7615039 65.3382608,23.5464921 65.0180102,23.2374281 L63.2149579,25.0387791 C63.7422554,25.5976207 64.4077067,26.0076987 65.1442239,26.2276708 C65.9222987,26.4409644 66.7264983,26.5440474 67.5332681,26.5339004 C68.1059567,26.537955 68.6764114,26.4621683 69.2281372,26.3087315 C69.7322118,26.1642432 70.2057281,25.9292344 70.6255027,25.6152114 C71.0201686,25.314147 71.3434019,24.9297085 71.5721052,24.489367 C71.8198869,24.014392 71.9439065,23.4847082 71.9327156,22.9492119 C71.9370892,22.4676879 71.8702563,21.9881585 71.7343799,21.5261446 C71.6159005,21.1254572 71.395348,20.7623544 71.0942963,20.4723543 L71.0942963,20.4723543 Z" id="路径" fill="#505050"></path>
                <path d="M77.9729407,19.6887403 C76.5604269,19.6867585 75.1538577,19.8714994 73.7898594,20.2381786 L73.7898594,26.4618464 L76.5845904,26.4618464 L76.5845904,21.9584689 L79.5596267,21.9584689 L79.5596267,26.4618464 L82.3633729,26.4618464 L82.3633729,20.2922192 C80.9348754,19.8891692 79.4573107,19.6860821 77.9729407,19.6887403 Z" id="路径" fill="#505050"></path>
                <path d="M82.3633729,15.077308 L79.5596267,15.077308 L79.5596267,18.68001 C80.5378358,18.8223937 81.485421,19.1267959 82.3633729,19.5806855 L82.3633729,15.077308 Z" id="路径" fill="#505050"></path>
                <path d="M76.5845904,15.077308 L73.7898594,15.077308 L73.7898594,19.490618 C74.6735232,19.078457 75.6166599,18.807941 76.5845904,18.6890168 L76.5845904,15.077308 Z" id="路径" fill="#505050"></path>
                <path d="M87.6553313,15.077308 L83.5083111,26.4618464 L86.438271,26.4618464 L86.9972172,24.7685764 L90.5041539,24.7685764 L91.027039,26.4618464 L93.9569989,26.4618464 L89.8099787,15.077308 L87.6553313,15.077308 Z M87.7815449,22.4358269 L88.8092847,19.4005504 L89.7649024,22.4358269 L87.7815449,22.4358269 Z" id="形状" fill="#505050"></path>
                <polygon id="路径" fill="#505050" points="101.205269 15.0863147 101.205269 20.8056042 97.5540882 15.0863147 95.1109524 15.0863147 95.1109524 26.4618464 97.9056834 26.4618464 97.9056834 20.7425569 101.556864 26.4618464 104 26.4618464 104 15.0863147"></polygon>
                <path d="M24.5575175,7.76382287 L28.3709731,11.582687 C25.6263994,12.5275468 23.7885488,15.1133204 23.8002356,18.0135101 C23.8019521,18.7672372 23.9268022,19.5156307 24.1698613,20.2291719 C24.8575151,22.1943076 26.4039814,23.7393148 28.3709731,24.4263197 L24.5575175,28.2451839 L16.7863623,36 L12.6303269,31.7758319 L20.4014821,24.0210158 C18.7940092,21.3147487 18.328806,18.0812398 19.1082679,15.0322135 C19.8877297,11.9831871 21.8479683,9.36855561 24.5575175,7.76382287 L24.5575175,7.76382287 Z" id="路径" fill="#E60012"></path>
                <path d="M27.6136911,18.0135101 C27.5530517,16.9142314 28.1055958,15.8715121 29.0496723,15.303635 C29.9937489,14.7357578 31.1746905,14.7357578 32.1187671,15.303635 C33.0628437,15.8715121 33.6153877,16.9142314 33.5547483,18.0135101 C33.5571441,18.800965 33.2457114,19.5569881 32.6892147,20.1146496 C32.132718,20.6723111 31.3769295,20.9857393 30.5887273,20.9857393 C28.9456602,20.9857393 27.6136911,19.655027 27.6136911,18.0135101 Z" id="路径" fill="#E60012"></path>
                <path d="M9.02422235,28.2181636 L5.1927363,24.3992995 C7.92177668,23.4583098 9.75815205,20.8977553 9.77248903,18.0135101 C9.77224112,17.261846 9.64420677,16.5156836 9.39384806,15.8068551 C8.71198898,13.8380894 7.1633614,12.290923 5.1927363,11.6097073 L9.02422235,7.76382287 L16.7863623,0 L20.9874741,4.19714786 L13.2163188,11.9609707 C14.3028295,13.7927989 14.8729093,15.8842316 14.8661117,18.0135101 C14.8579279,22.206705 12.6377023,26.0850108 9.02422235,28.2181636 Z" id="路径" fill="#E60012"></path>
                <path d="M5.95001825,18.0135101 C5.94005998,19.6538156 4.60188443,20.9759539 2.96002054,20.9677131 C1.31815664,20.959395 -0.00659155974,19.6238284 0,17.9835061 C0.00664091012,16.3431838 1.34211992,15.0183269 2.98399729,15.0232537 C3.77534344,15.0232537 4.53389031,15.3391367 5.09091117,15.9007064 C5.64793203,16.4622761 5.95723417,17.2229435 5.95001825,18.0135101 Z" id="路径" fill="#E60012"></path>
            </g>
        </g>
    </g>
</svg>